<svg version="1.1" id="Layer_1" xmlns="http://www.w3.org/2000/svg" xmlns:xlink="http://www.w3.org/1999/xlink" x="0px" y="0px"
	 width="100%" viewBox="0 0 1024 496" enable-background="new 0 0 1024 496" xml:space="preserve">
<path fill="#000000" opacity="1.000000" stroke="none" 
	d="
M437.913849,57.965729 
	C383.508423,93.220398 329.415131,128.291855 275.299255,163.328430 
	C243.276749,184.060974 211.219223,204.739441 179.173141,225.435577 
	C178.194824,226.067383 177.196930,226.680847 176.159531,227.207016 
	C172.625519,228.999451 169.212433,228.961594 166.867737,225.461517 
	C164.487396,221.908249 165.223846,218.351501 168.507782,215.701706 
	C171.218445,213.514496 174.232254,211.693405 177.165665,209.793304 
	C204.709229,191.952225 232.239410,174.090179 259.853302,156.358566 
	C262.735107,154.508087 263.810242,152.421082 263.793365,149.041824 
	C263.674164,125.213280 263.718750,101.383865 263.732727,77.554733 
	C263.737946,68.679382 265.731049,66.692780 274.602234,66.685211 
	C289.932861,66.672150 305.263550,66.661995 320.594086,66.700356 
	C328.306305,66.719658 330.313995,68.773560 330.326111,76.499481 
	C330.343353,87.471008 330.330505,98.442596 330.330505,110.625565 
	C337.804932,105.890221 344.500336,101.720093 351.124420,97.439713 
	C384.284485,76.012375 417.546967,54.739197 450.474426,32.959759 
	C457.280426,28.458027 462.319580,28.674292 468.878235,33.139683 
	C485.534210,44.479828 502.681335,55.096203 519.496460,66.207230 
	C522.648010,68.289742 524.832092,68.164192 527.937805,66.108246 
	C543.633240,55.718056 559.569214,45.691387 575.266479,35.303867 
	C579.941956,32.209885 583.775024,32.268703 588.492737,35.389553 
	C631.564209,63.881809 674.744019,92.210487 717.913086,120.555069 
	C764.283447,151.001602 810.668030,181.426529 857.075562,211.816284 
	C860.713989,214.198868 861.101990,217.390305 859.684998,220.934555 
	C858.317505,224.354889 854.000000,225.782272 850.290833,223.709976 
	C844.921997,220.710419 839.818420,217.225616 834.669250,213.844986 
	C787.742249,183.035965 740.826050,152.210541 693.914551,121.378006 
	C658.138977,97.864616 622.341125,74.384605 586.658203,50.731365 
	C583.154297,48.408722 580.631104,48.568226 577.277649,50.792614 
	C565.340881,58.710266 553.228821,66.363388 541.199951,74.142616 
	C539.970337,74.937805 538.853638,75.907486 537.800476,76.708031 
	C537.941589,78.663727 539.430115,79.001221 540.485413,79.686485 
	C595.532654,115.433380 650.585022,151.172485 705.652161,186.888748 
	C719.766602,196.043289 733.933289,205.117203 748.072266,214.233917 
	C753.282959,217.593735 754.834839,221.458588 752.510925,225.228180 
	C750.208069,228.963516 745.845703,229.488449 740.579163,226.106171 
	C723.760376,215.304703 707.067200,204.308044 690.287659,193.445053 
	C643.721191,163.298050 597.126404,133.194839 550.561096,103.046051 
	C521.618347,84.306999 492.677338,65.564835 463.830536,46.678944 
	C460.733429,44.651264 458.459290,44.402130 455.378387,46.582878 
	C449.809082,50.525002 443.952881,54.061806 437.913849,57.965729 
M285.647949,80.347801 
	C277.359894,80.356453 277.353180,80.356453 277.350830,88.392975 
	C277.345917,105.044060 277.328644,121.695198 277.378571,138.346130 
	C277.383820,140.100021 276.822510,141.981583 278.021973,143.714050 
	C278.525391,143.645279 279.087189,143.727310 279.448730,143.496140 
	C291.089111,136.053497 302.697968,128.561554 314.345886,121.130806 
	C316.311279,119.876976 316.698639,118.121780 316.690857,116.001839 
	C316.652985,105.678314 316.587280,95.353401 316.726074,85.031593 
	C316.772064,81.610649 315.562531,80.250946 312.083801,80.310402 
	C303.594299,80.455498 295.100586,80.351768 285.647949,80.347801 
z"/>
<path fill="#000000" opacity="1.000000" stroke="none" 
	d="
M592.762024,340.824158 
	C592.351624,337.757507 589.603638,334.386597 593.964661,332.884033 
	C599.045044,331.133606 602.542786,332.848816 604.217224,337.146942 
	C608.569885,348.319855 622.655884,353.267395 632.859985,347.086548 
	C638.884766,343.437256 640.290833,337.674622 639.695496,331.082977 
	C639.177979,325.351959 636.148376,321.580994 630.968994,319.345062 
	C626.751953,317.524506 622.308899,317.072174 617.786560,317.114594 
	C614.464111,317.145752 611.942505,316.611053 611.896667,312.297943 
	C611.856018,308.484711 612.766663,306.312714 617.074158,306.300476 
	C620.040283,306.292023 623.065308,305.857330 625.958496,305.169403 
	C635.335571,302.939819 639.142578,297.471191 637.757324,288.609589 
	C636.668091,281.641785 629.479736,276.961945 621.057739,277.742615 
	C613.464172,278.446442 607.894592,281.681854 605.284485,289.372864 
	C603.381653,294.979980 598.351196,292.254272 594.965637,291.953949 
	C591.070618,291.608429 593.187195,288.070099 593.727661,285.981598 
	C597.596497,271.031189 613.076965,265.683075 626.083374,267.070801 
	C636.434204,268.175171 645.191772,272.067657 648.912659,282.802185 
	C652.969543,294.505890 648.573608,304.438110 636.703857,311.007874 
	C636.551697,312.165161 637.588806,312.270386 638.246582,312.571686 
	C649.527222,317.739594 652.277771,326.795776 651.730408,335.980438 
	C651.008545,348.094757 644.677856,355.747620 633.509094,358.756195 
	C622.570740,361.702728 612.067444,360.628754 602.436584,354.257263 
	C597.674255,351.106659 594.635315,346.610474 592.762024,340.824158 
z"/>
<path fill="#000000" opacity="1.000000" stroke="none" 
	d="
M493.807587,353.782898 
	C490.999573,360.061188 489.805542,360.474548 479.143402,358.606628 
	C490.421387,332.783417 501.605042,307.176239 512.832764,281.468109 
	C510.125214,279.122192 507.215729,279.475708 504.495667,279.456238 
	C493.512695,279.377472 482.526917,279.304749 471.546265,279.482880 
	C467.670441,279.545746 465.697754,278.633789 465.772797,274.259735 
	C465.841248,270.268433 467.054993,268.636810 471.274902,268.682343 
	C487.748291,268.860046 504.225708,268.846344 520.699463,268.683746 
	C524.762695,268.643616 526.492432,269.947357 526.274475,274.125854 
	C526.132080,276.855499 525.512817,279.338654 524.456238,281.815552 
	C514.276794,305.678223 504.132538,329.555969 493.807587,353.782898 
z"/>
<path fill="#000000" opacity="1.000000" stroke="none" 
	d="
M382.887329,289.082886 
	C382.889984,287.597931 382.797058,286.588379 382.911163,285.602753 
	C383.386902,281.494171 381.645844,280.032440 377.509094,280.132507 
	C371.364471,280.281128 370.754425,279.252136 370.948151,273.223999 
	C371.057892,269.808350 372.442596,268.515106 375.835388,268.641022 
	C380.821320,268.826019 385.821564,268.780945 390.811096,268.653168 
	C393.832275,268.575775 395.391296,269.412537 395.380493,272.831970 
	C395.293640,300.292053 395.267670,327.752777 395.381104,355.212677 
	C395.403381,360.601318 391.717834,359.121613 388.828766,359.361267 
	C385.277374,359.655884 382.789520,359.163055 382.828094,354.475037 
	C382.996368,334.006012 382.892792,313.534698 382.887909,293.064240 
	C382.887604,291.899231 382.887299,290.734253 382.887329,289.082886 
z"/>
<path fill="#000000" opacity="1.000000" stroke="none" 
	d="
M777.351929,443.816589 
	C780.073730,445.015137 779.844666,442.525726 780.363281,441.415802 
	C783.535583,434.625946 786.535156,427.755005 789.558838,420.896301 
	C790.717285,418.268616 791.666138,415.262146 795.449219,416.137817 
	C798.915222,416.940033 798.035522,420.006805 798.061157,422.340332 
	C798.158203,431.171631 798.151001,440.005310 798.053650,448.836700 
	C798.028259,451.141907 798.847717,454.352386 794.791382,454.205994 
	C790.791870,454.061676 791.834717,450.836121 791.781433,448.573242 
	C791.644165,442.749634 791.735474,436.920715 791.000671,430.827881 
	C788.325073,436.785645 785.740173,442.786713 782.927063,448.678833 
	C781.868408,450.896301 781.858154,454.349792 778.136597,454.211884 
	C774.817017,454.088867 774.714233,450.975677 773.711975,448.853607 
	C770.835693,442.763947 768.105286,436.605469 764.351624,430.671814 
	C764.351624,437.103455 764.386292,443.535400 764.330505,449.966553 
	C764.313782,451.899323 764.649597,454.235321 761.550049,454.216125 
	C758.538940,454.197479 758.702820,451.962982 758.696411,449.971100 
	C758.665039,440.138824 758.669189,430.306396 758.690735,420.474091 
	C758.694702,418.658905 758.496399,416.664673 760.982788,416.123291 
	C763.527832,415.569122 765.102722,416.701111 766.121033,418.966827 
	C769.807373,427.169403 773.525940,435.357544 777.351929,443.816589 
z"/>
<path fill="#000000" opacity="1.000000" stroke="none" 
	d="
M172.869751,420.245697 
	C172.803970,416.799103 174.312927,415.610565 177.212524,415.700378 
	C180.875824,415.813843 184.567810,415.508850 188.204422,415.846832 
	C192.623703,416.257629 196.810028,417.520172 198.778168,422.158813 
	C200.434021,426.061493 199.278656,429.974152 194.639175,435.042389 
	C195.348389,435.386444 196.239670,435.602509 196.835800,436.143707 
	C200.283112,439.273132 201.265030,443.226898 199.737274,447.509064 
	C198.091019,452.123322 194.232727,454.034790 189.580002,454.269623 
	C185.755844,454.462616 181.903732,454.150696 178.085403,454.395905 
	C174.180374,454.646606 172.744080,453.115173 172.814026,449.216217 
	C172.984406,439.719330 172.864441,430.217255 172.869751,420.245697 
M181.096069,449.503448 
	C183.402771,449.502808 185.739075,449.734558 188.008972,449.445190 
	C191.135223,449.046600 193.840240,447.606476 194.398819,444.169647 
	C194.887207,441.164734 193.194229,438.922791 190.470032,438.041077 
	C187.031097,436.927979 183.410309,436.571411 179.959305,438.255096 
	C179.635162,438.413208 179.401367,439.124268 179.422806,439.564117 
	C179.579376,442.777130 178.347885,446.131439 181.096069,449.503448 
M184.536591,431.888855 
	C188.632339,431.946289 192.917557,432.021576 193.473694,426.530548 
	C193.842209,422.891998 190.232040,421.066223 183.993835,421.150299 
	C181.217270,421.187775 178.999069,421.487305 179.282120,425.104095 
	C179.523819,428.192474 178.117676,432.254883 184.536591,431.888855 
z"/>
<path fill="#000000" opacity="1.000000" stroke="none" 
	d="
M693.915405,419.804626 
	C702.833374,414.221497 711.909058,414.276703 718.861633,419.719391 
	C724.949768,424.485352 727.507263,433.909973 724.779541,441.936340 
	C721.985840,450.156830 715.796997,454.255524 707.502380,454.828949 
	C700.209534,455.333130 694.026794,452.414490 690.169495,446.023254 
	C685.635010,438.509857 685.960876,430.829651 690.693787,423.424194 
	C691.489075,422.179810 692.639221,421.162201 693.915405,419.804626 
M719.682861,434.583527 
	C719.074646,427.456665 715.684387,422.687378 710.296082,421.378571 
	C704.101257,419.873901 698.491516,421.914551 695.423584,426.788727 
	C692.288940,431.768921 692.530334,439.526947 695.966797,444.248077 
	C699.204346,448.695679 704.511658,450.607056 709.601257,449.158356 
	C716.023193,447.330383 719.090393,443.150665 719.682861,434.583527 
z"/>
<path fill="#000000" opacity="1.000000" stroke="none" 
	d="
M417.277283,418.437683 
	C426.243469,425.218170 428.687500,436.007721 423.617645,445.207550 
	C419.117035,453.374390 408.944672,456.997742 399.904205,453.654266 
	C390.029572,450.002228 385.021820,439.151611 388.372742,428.668335 
	C391.506073,418.865753 401.704834,413.423584 411.876923,416.210693 
	C413.623199,416.689178 415.264771,417.549988 417.277283,418.437683 
M411.459320,421.613647 
	C409.478424,421.433136 407.493347,421.064117 405.517487,421.108337 
	C400.080414,421.229980 396.447784,424.080444 394.567291,429.076477 
	C392.270264,435.179352 392.886322,441.013855 397.530518,445.755615 
	C401.310791,449.615356 406.044647,450.688812 411.304962,448.658936 
	C416.531738,446.641968 419.204834,442.795380 419.714600,437.339020 
	C420.335724,430.690582 418.794769,425.069214 411.459320,421.613647 
z"/>
<path fill="#000000" opacity="1.000000" stroke="none" 
	d="
M528.215942,451.739197 
	C527.663574,454.520172 525.964111,454.412598 524.273621,454.001312 
	C522.555542,453.583374 522.693359,452.028961 522.690002,450.737122 
	C522.662781,440.243713 522.690430,429.750214 522.674255,419.256775 
	C522.670898,417.051056 523.562805,415.740997 525.893188,415.783875 
	C530.208801,415.863281 534.546936,415.293549 538.831604,416.296265 
	C543.538757,417.397827 547.323425,419.683594 548.179260,424.786194 
	C549.071716,430.106537 547.772522,434.734253 542.596802,437.537811 
	C542.020874,437.849762 541.504639,438.272003 540.463501,438.982330 
	C543.179077,443.688202 545.870667,448.352539 548.758240,453.356506 
	C544.684875,455.169708 542.128174,454.501404 540.235901,450.843109 
	C538.555786,447.594757 536.524597,444.529144 534.682007,441.363251 
	C533.587524,439.482758 531.932983,438.982391 529.984436,439.531281 
	C528.049011,440.076508 528.376770,441.827271 528.339050,443.276825 
	C528.269714,445.940399 528.284607,448.606140 528.215942,451.739197 
M542.568115,426.650208 
	C540.532532,421.656738 536.803955,419.866547 530.977478,421.268250 
	C526.441895,422.359344 528.780396,426.116730 528.416870,428.703033 
	C528.168091,430.472656 527.615967,432.770203 530.266113,433.751770 
	C535.574646,435.717957 540.813538,433.049622 542.568115,426.650208 
z"/>
<path fill="#000000" opacity="1.000000" stroke="none" 
	d="
M464.953308,431.986908 
	C465.038391,435.803101 464.928070,439.144653 465.260284,442.441620 
	C465.715851,446.962708 468.815704,449.575165 473.297333,449.631500 
	C477.917999,449.689575 481.354584,446.888885 481.725098,442.272217 
	C482.070038,437.973724 481.420471,433.540863 482.185944,429.345459 
	C483.009796,424.830017 478.696625,416.523834 485.262360,416.569550 
	C491.394257,416.612244 487.291931,424.969910 488.149384,429.544586 
	C488.781403,432.916565 488.361389,436.506805 488.243286,439.994171 
	C487.928253,449.295135 481.953979,455.208252 473.155884,455.039185 
	C464.455719,454.872040 458.923523,449.171021 458.728668,439.912842 
	C458.588776,433.265930 458.696167,426.613556 458.714813,419.963715 
	C458.720673,417.874054 458.848541,415.822723 461.755096,415.857025 
	C464.592316,415.890533 464.833740,417.990662 464.891174,420.022278 
	C464.999146,423.843201 464.943024,427.668732 464.953308,431.986908 
z"/>
<path fill="#000000" opacity="1.000000" stroke="none" 
	d="
M624.648438,423.095978 
	C624.648926,422.110443 624.593079,421.603790 624.659912,421.113831 
	C624.945801,419.016022 623.757507,415.881653 627.507935,415.946106 
	C631.161926,416.008881 630.240601,419.081299 630.291138,421.212067 
	C630.562805,432.658722 630.526917,432.659546 642.064819,432.611969 
	C648.639099,432.584869 648.636719,432.584900 648.663025,425.953094 
	C648.672302,423.624695 648.694885,421.296387 648.713684,418.968018 
	C648.729431,417.015045 649.472168,415.784302 651.665466,415.874115 
	C653.586365,415.952759 654.275696,417.102264 654.277649,418.810883 
	C654.290039,429.621765 654.288879,440.432648 654.270081,451.243530 
	C654.267151,452.902130 653.736206,454.156403 651.739441,454.222046 
	C649.612610,454.291931 648.717712,453.238190 648.709473,451.215881 
	C648.695923,447.889557 648.582214,444.560913 648.672974,441.237701 
	C648.747253,438.519348 647.685669,437.141632 644.875671,437.354340 
	C644.710388,437.366852 644.542908,437.358551 644.376892,437.350952 
	C630.961182,436.736938 630.965881,436.737091 630.310425,449.951355 
	C630.213806,451.898376 630.580872,454.191528 627.519958,454.216919 
	C624.489929,454.242065 624.667847,452.029114 624.662292,450.028809 
	C624.637817,441.213440 624.649841,432.397949 624.648438,423.095978 
z"/>
<path fill="#000000" opacity="1.000000" stroke="none" 
	d="
M233.991638,452.716980 
	C233.789444,441.439972 233.786407,430.621429 233.647919,419.804626 
	C233.609344,416.791504 234.855927,415.617523 237.809586,415.692169 
	C242.301285,415.805634 246.798065,415.705872 251.292450,415.733459 
	C253.033051,415.744171 254.799683,415.952911 254.860321,418.242706 
	C254.919235,420.466858 253.256119,420.962006 251.483917,421.035553 
	C248.824036,421.145905 246.148773,421.299683 243.498535,421.135925 
	C239.090317,420.863617 239.309769,423.746368 239.328735,426.716370 
	C239.348419,429.796906 238.937759,432.998444 243.675293,432.665253 
	C245.826706,432.513885 248.001312,432.664856 250.164459,432.717255 
	C251.800400,432.756897 253.193497,433.154419 253.089966,435.229095 
	C252.999451,437.043335 251.663910,437.267120 250.277115,437.312592 
	C248.613968,437.367096 246.926605,437.517853 245.287735,437.316895 
	C240.750717,436.760559 239.023041,438.480530 239.256424,443.179474 
	C239.576950,449.633301 239.300888,449.640167 246.006622,449.664886 
	C248.169693,449.672882 250.333710,449.695282 252.495132,449.772217 
	C253.802185,449.818756 254.724289,450.415375 254.787369,451.862091 
	C254.848495,453.264160 254.090652,454.250824 252.765305,454.184723 
	C246.555771,453.874817 240.226318,455.675171 233.991638,452.716980 
z"/>
<path fill="#000000" opacity="1.000000" stroke="none" 
	d="
M832.672302,450.836792 
	C832.648315,440.363617 832.731689,430.376038 832.592651,420.391602 
	C832.545593,417.009308 833.686707,415.500061 837.194336,415.669830 
	C841.013489,415.854706 844.850403,415.640350 848.675659,415.743073 
	C850.544495,415.793213 853.061584,415.225830 853.190308,418.258759 
	C853.318726,421.285889 850.882324,420.974426 848.938599,421.096832 
	C847.445679,421.190887 845.925049,421.307098 844.449585,421.133759 
	C839.686584,420.574188 838.056580,422.483795 838.183533,427.331299 
	C838.292236,431.480469 839.573425,433.132324 843.675049,432.687439 
	C845.318604,432.509155 847.001770,432.640045 848.663940,432.704895 
	C850.160767,432.763306 851.851135,432.727112 851.920837,434.864166 
	C852.001587,437.337799 850.114075,437.277740 848.441895,437.327087 
	C846.279785,437.390930 844.113770,437.416809 841.951660,437.365051 
	C837.669006,437.262543 838.223511,440.385101 838.387329,442.945374 
	C838.556946,445.596893 836.877258,449.476746 841.896118,449.623413 
	C844.889893,449.710876 847.886902,449.680603 850.882141,449.724792 
	C852.404724,449.747223 853.447998,450.327087 853.446960,452.060577 
	C853.445862,453.862976 852.271973,454.280182 850.803467,454.285431 
	C845.810913,454.303345 840.818298,454.294891 835.825684,454.293823 
	C833.846375,454.293396 832.670837,453.438263 832.672302,450.836792 
z"/>
<path fill="#000000" opacity="1.000000" stroke="none" 
	d="
M356.194550,419.035461 
	C354.451874,422.488251 352.997864,425.679230 351.227570,428.683868 
	C347.294067,435.359924 344.056244,442.150757 345.245239,450.262817 
	C345.552277,452.357697 345.085968,454.286102 342.181488,454.266205 
	C339.610077,454.248566 338.788727,452.445282 339.206055,450.635406 
	C341.525055,440.578186 335.415253,433.192566 331.446136,425.119720 
	C330.081329,422.343781 328.668365,419.591553 327.218262,416.711029 
	C331.386261,414.812347 333.612885,416.073486 335.134155,419.275757 
	C337.269806,423.771179 339.448914,428.245941 342.252838,434.064850 
	C345.022949,428.466095 347.358673,423.861755 349.581390,419.203522 
	C350.690216,416.879883 352.126190,415.347839 354.958496,415.823029 
	C356.849030,416.140259 356.996674,417.195923 356.194550,419.035461 
z"/>
</svg>